<svg xmlns="http://www.w3.org/2000/svg" enable-background="new 0 0 512 512" height="186" width="106"><rect id="backgroundrect" width="100%" height="100%" x="0" y="0" fill="none" stroke="none" class="" style=""/><g class="currentLayer" style=""><title>Layer 1</title><g id="svg_1" class="" fill-opacity="1" fill="#ffffff"><path d="m22.703718869439893,127.25765048764069 c-1.452521284436811,0.4047295424868956 -2.3019446868913542,1.9102943755799777 -1.8972151444044587,3.362815660016789 l8.045180420852608,28.872766131935414 c0.6383391437607495,2.2910453275784213 2.6652566639891053,3.8303981745415943 5.043496866070987,3.8303981745415943 s4.405157722310237,-1.5393528469631734 5.043496866070987,-3.8303981745415943 l8.045180420852608,-28.872766131935414 c0.4047295424868956,-1.452521284436811 -0.44433054799055033,-2.958086117529893 -1.8972151444044587,-3.362815660016789 c-1.4532479083910061,-0.4058194784181883 -2.958086117529893,0.4446938599676481 -3.362815660016789,1.8972151444044587 l-7.829009794479449,28.09564181292332 l-7.828646482502351,-28.09564181292332 c-0.4047295424868956,-1.452521284436811 -1.9095677516257825,-2.301581374914256 -3.3624523480396906,-1.8972151444044587 z" id="svg_2" fill="#ffffff"/><path d="m52.7899470048818,129.9047415527749 v30.68823608149288 c0,1.507744704955669 1.2221814909568363,2.7215700204392568 2.7302895078896032,2.7215700204392568 s2.7302895078896032,-1.2309009784071825 2.7302895078896032,-2.7390089953399492 v-30.670797106592186 c0,-1.507744704955669 -1.2225448029339339,-2.7302895078896032 -2.7302895078896032,-2.7302895078896032 s-2.7302895078896032,1.2225448029339339 -2.7302895078896032,2.7302895078896032 z" id="svg_3" fill="#ffffff"/><path d="m68.01780521295696,127.12976467170228 c-1.507744704955669,0 -2.7302895078896032,1.2225448029339339 -2.7302895078896032,2.7302895078896032 v30.732923454675902 c0,1.507744704955669 1.2225448029339339,2.7302895078896032 2.7302895078896032,2.7302895078896032 s2.7302895078896032,-1.2225448029339339 2.7302895078896032,-2.7302895078896032 v-10.429233614568057 h2.8781574825683878 c6.350693359668697,0 11.516989673998722,-5.1666596263071245 11.516989673998722,-11.517352985975823 c0,-6.3503300476916 -5.1666596263071245,-11.516989673998722 -11.516989673998722,-11.516989673998722 h-5.60844699045799 zm11.665220960654606,11.516989673998722 c0,3.3399270054596295 -2.7168469647369857,6.056773970196615 -6.056773970196615,6.056773970196615 h-2.8781574825683878 v-12.11354794039323 h2.8781574825683878 c3.339563693482532,0 6.056773970196615,2.7172102767140838 6.056773970196615,6.056773970196615 z" id="svg_4" fill="#ffffff"/><path d="m72.47527985996928,82.12013376499313 l-8.75618196003291,-1.9691509158698137 c-0.27066742293782503,-0.06067310017532459 -0.5068202080513634,-0.2325196653425613 -0.6485118791194867,-0.4712156342957841 l-4.578457535385865,-7.718926265418828 c-1.1778574297509108,-1.9854999548392123 -3.2589084345668318,-3.170623624132078 -5.567392737045946,-3.170623624132078 s-4.389535307295034,1.1854869812699633 -5.567392737045946,3.170623624132078 l-4.578457535385865,7.7192895773959265 c-0.14132835909102548,0.23869596895322293 -0.3778444561816615,0.4101792221433615 -0.6485118791194867,0.4712156342957841 l-8.755818648055813,1.9691509158698137 c-2.252170946028962,0.5064568960742658 -4.022590210426304,2.1195620743882824 -4.736134933446289,4.3150563519899965 c-0.7131814110428865,2.1954942776017123 -0.22924985754868143,4.5410364017447975 1.2952071983534845,6.274761156455266 l5.9263449704185245,6.7394371751632915 c0.18310923645726696,0.20817776287701173 0.27357391875460707,0.4864747373338896 0.2477787683806667,0.7625918399281808 l-0.8330743634851444,8.935658076719198 c-0.2143540664876736,2.2983115671203764 0.7727645752869173,4.48072661354657 2.6401881375693605,5.837696848006673 s4.248206948204008,1.6210980418101673 6.367769022592292,0.7073684194093224 l8.241005576508298,-3.553917759970205 c0.25468169594552403,-0.11008352906061883 0.5471478375092137,-0.10972021708352103 0.8018295334547377,0 l8.241005576508298,3.553917759970205 c2.091950364128853,0.9017403271566194 4.525413986729593,0.6314362161958924 6.367769022592292,-0.7073684194093224 c1.8674235622824427,-1.3569702344601022 2.854542204057034,-3.539385280886296 2.6401881375693605,-5.837696848006673 l-0.8330743634851444,-8.935658076719198 c-0.025795150373940368,-0.27611710259429123 0.0646695319233999,-0.5544140770511689 0.2477787683806667,-0.7625918399281808 l5.9263449704185245,-6.7394371751632915 c1.524457055902165,-1.7333614427333726 2.0083886093963708,-4.079266878853555 1.2952071983534845,-6.274761156455266 c-0.7128180990657886,-2.1958575895788104 -2.4836006754402296,-3.8089627678928273 -4.735408309492094,-4.315419663967093 zm-0.6597745504095173,6.983946135750077 l-5.9263449704185245,6.7394371751632915 c-1.1713178141631515,1.3319017080403572 -1.748620545771478,3.1088605880254603 -1.5840402201461972,4.875283420674728 l0.8330743634851444,8.935658076719198 c0.0708458355340616,0.7560522243404211 -0.7099116032490067,1.3260887164067934 -1.409287159162178,1.0238131514614637 l-8.241005576508298,-3.553554447993108 c-1.620371417855972,-0.6990122439360742 -3.5059605789933026,-0.6986489319589764 -5.126331996849274,0 l-8.241005576508298,3.553554447993108 c-0.6990122439360742,0.30227556494532953 -1.4797696827191422,-0.2677609271210431 -1.409287159162178,-1.0238131514614637 l0.8330743634851444,-8.935658076719198 c0.1645803256252815,-1.7664228326492681 -0.412722405983046,-3.543381712634371 -1.5840402201461972,-4.875283420674728 l-5.9263449704185245,-6.7394371751632915 c-0.5031870882803862,-0.5722163639289585 -0.2020014592663499,-1.4903057300549771 0.5380650380817703,-1.6567026155657474 l8.755818648055813,-1.9691509158698137 c1.7308182588936887,-0.38910712747169185 3.2425593955974334,-1.487399234238195 4.147206218570834,-3.0129462260716533 l4.578457535385865,-7.718926265418828 c0.38765387956330083,-0.6539615587759526 1.3537004266662223,-0.6543248707530507 1.742080930183719,0 l4.578094223408767,7.718562953441731 c0.9050101349504993,1.526273615787654 2.416751271654243,2.624565722554157 4.147206218570834,3.0133095380487513 l8.755818648055813,1.9691509158698137 c0.7404298093252176,0.16639688551077025 1.0423420622934494,1.0844862516367881 0.5387916620359658,1.6567026155657474 z" id="svg_5" fill="#ffffff"/><path d="m94.72595858534395,37.12685189725338 h-19.983975300261825 l3.899790762167265,-7.849718577174021 c0.6706739097224496,-1.3504306188723425 0.11989295244225821,-2.9889676355832018 -1.2301743544529868,-3.659641545305651 c-1.3497039949181469,-0.671400533676645 -2.9889676355832018,-0.12025626441935586 -3.659641545305651,1.2301743544529868 l-5.106713150085995,10.278822456049587 h-10.067374885378696 l-2.6042202518366833,-5.24186520556636 l13.127914980450155,-26.424406718273662 h15.276178701029158 l-5.757768213045167,11.589288757441176 c-0.6706739097224496,1.3504306188723425 -0.11989295244225821,2.9889676355832018 1.2305376664300847,3.659641545305651 c1.3497039949181469,0.6710372216995472 2.9889676355832018,0.12025626441935586 3.659641545305651,-1.2301743544529868 l7.717836329487536,-15.534130204768562 c0.8857546001643186,-1.7842251195270575 -0.45704646718897174,-3.944841447327388 -2.4454529178449653,-3.944841447327388 h-21.373280300683625 c-1.036529070659885,0 -1.9836833949537234,0.5871121549899664 -2.4450896058678677,1.515374256474722 l-12.03943229706529,24.233272184397126 l-12.03943229706529,-24.233272184397126 c-0.4614062109141448,-0.9282621014847552 -1.4085605352079829,-1.515374256474722 -2.4450896058678677,-1.515374256474722 h-21.373280300683625 c-1.9884064506559942,0 -3.3315708299863815,2.1606163278003283 -2.4450896058678677,3.944841447327388 l16.485280960810478,33.18200949229184 h-19.983611988284725 c-6.133432797364241,0 -11.123159490824762,4.98972669346052 -11.123159490824762,11.123159490824762 v22.67829692241875 c0,1.507744704955669 1.2225448029339339,2.7302895078896032 2.7302895078896032,2.7302895078896032 s2.7302895078896032,-1.2225448029339339 2.7302895078896032,-2.7302895078896032 v-22.67829692241875 c0,-3.1223031311780765 2.540277343867479,-5.662943787022653 5.662943787022653,-5.662943787022653 h22.696462521273638 l4.013144099021764,8.07751518681431 h-1.9531651888775126 c-1.507744704955669,0 -2.7302895078896032,1.2221814909568363 -2.7302895078896032,2.7302895078896032 c0,1.507744704955669 1.2221814909568363,2.7302895078896032 2.7302895078896032,2.7302895078896032 h34.089562811082025 c1.507744704955669,0 2.7302895078896032,-1.2225448029339339 2.7302895078896032,-2.7302895078896032 s-1.2221814909568363,-2.7302895078896032 -2.7302895078896032,-2.7302895078896032 h-4.666015721866423 l-4.013144099021764,-8.07751518681431 h33.435237940328975 c3.1223031311780765,0 5.662943787022653,2.540277343867479 5.662943787022653,5.662943787022653 v93.81950509386076 c0,1.507744704955669 1.2221814909568363,2.7302895078896032 2.7302895078896032,2.7302895078896032 c1.507744704955669,0 2.7302895078896032,-1.2225448029339339 2.7302895078896032,-2.7302895078896032 v-93.81950509386076 c-0.00036331197709775194,-6.133432797364241 -4.990453317414715,-11.123159490824762 -11.12352280280186,-11.123159490824762 zm-50.79573745396793,13.53773089061642 l-22.458129864297508,-45.20436612643354 h15.276178701029158 l22.458129864297508,45.20436612643354 z" id="svg_6" fill="#ffffff"/><path d="m103.11882856827913,150.26002169363062 c-1.507744704955669,0 -2.7302895078896032,1.2221814909568363 -2.7302895078896032,2.7302895078896032 v21.90226253933795 c0,3.122666443155175 -2.540277343867479,5.662943787022653 -5.662943787022653,5.662943787022653 h-83.6020823619407 c-3.1223031311780765,0 -5.662943787022653,-2.540277343867479 -5.662943787022653,-5.662943787022653 v-93.04347071077999 c0,-1.507744704955669 -1.2221814909568363,-2.7302895078896032 -2.7302895078896032,-2.7302895078896032 s-2.7302895078896032,1.2225448029339339 -2.7302895078896032,2.7302895078896032 v93.04347071077999 c0,6.133432797364241 4.98972669346052,11.123159490824762 11.123159490824762,11.123159490824762 h83.6024456739178 c6.133432797364241,0 11.123159490824762,-4.98972669346052 11.123159490824762,-11.123159490824762 v-21.90226253933795 c0.00036331197709775194,-1.5081080169327667 -1.2221814909568363,-2.7302895078896032 -2.7299261959125047,-2.7302895078896032 z" id="svg_7" fill="#ffffff"/></g></g></svg>